<svg width="23" height="16" viewBox="0 0 23 16" fill="none" xmlns="http://www.w3.org/2000/svg">
<path d="M20.4198 6.92211C20.5988 6.84314 20.7507 6.71338 20.8567 6.54892C20.9627 6.38445 21.0181 6.1925 21.0161 5.99685C21.0141 5.8012 20.9547 5.61044 20.8454 5.4482C20.736 5.28596 20.5814 5.15937 20.4008 5.08411L11.8298 1.18011C11.5692 1.06126 11.2862 0.999756 10.9998 0.999756C10.7134 0.999756 10.4304 1.06126 10.1698 1.18011L1.5998 5.08011C1.42177 5.15809 1.27031 5.28625 1.16396 5.44893C1.05761 5.61161 1.00098 5.80176 1.00098 5.99611C1.00098 6.19047 1.05761 6.38062 1.16396 6.5433C1.27031 6.70598 1.42177 6.83414 1.5998 6.91211L10.1698 10.8201C10.4304 10.939 10.7134 11.0005 10.9998 11.0005C11.2862 11.0005 11.5692 10.939 11.8298 10.8201L20.4198 6.92211Z" stroke="white" stroke-width="2" stroke-linecap="round" stroke-linejoin="round"/>
<path d="M21 6V12" stroke="white" stroke-width="2" stroke-linecap="round" stroke-linejoin="round"/>
<path d="M5 8.5V12C5 12.7956 5.63214 13.5587 6.75736 14.1213C7.88258 14.6839 9.4087 15 11 15C12.5913 15 14.1174 14.6839 15.2426 14.1213C16.3679 13.5587 17 12.7956 17 12V8.5" stroke="white" stroke-width="2" stroke-linecap="round" stroke-linejoin="round"/>
</svg>
